<svg width="128" height="128" viewBox="0 0 128 128" fill="none" xmlns="http://www.w3.org/2000/svg">
  <defs>
    <linearGradient id="g1" x1="16" y1="16" x2="112" y2="112" gradientUnits="userSpaceOnUse">
      <stop stop-color="#0F172A"/>
      <stop offset="1" stop-color="#1D4ED8"/>
    </linearGradient>
  </defs>
  <rect x="8" y="8" width="112" height="112" rx="24" fill="url(#g1)"/>
  <path d="M64 30L95 44V62C95 80 82 96 64 102C46 96 33 80 33 62V44L64 30Z" fill="#FFFFFF" fill-opacity="0.96"/>
  <path d="M64 46C57.4 46 52 51.4 52 58C52 64.6 57.4 70 64 70C70.6 70 76 64.6 76 58C76 51.4 70.6 46 64 46ZM64 52C67.3 52 70 54.7 70 58C70 61.3 67.3 64 64 64C60.7 64 58 61.3 58 58C58 54.7 60.7 52 64 52Z" fill="#1D4ED8"/>
  <rect x="58" y="73" width="12" height="17" rx="3" fill="#1D4ED8"/>
</svg>
